<?xml version="1.0" encoding="utf-8"?>
<!-- Generator: Adobe Illustrator 25.2.1, SVG Export Plug-In . SVG Version: 6.00 Build 0)  -->
<svg version="1.1" id="Layer_1" xmlns="http://www.w3.org/2000/svg" xmlns:xlink="http://www.w3.org/1999/xlink" x="0px" y="0px"
	 viewBox="0 0 1000 600" style="enable-background:new 0 0 1000 600;" xml:space="preserve">
<style type="text/css">
	.st0{fill:#5BA6C1;}
	.st1{fill:#FDFDFD;}
	.st2{fill:#010202;}
	.st3{fill:#D25639;}
</style>
<g>
	<path class="st0" d="M0,226.6c0-7.8,0-15.7,0-23.5c1.7-1.9,1.7-4.3,2.2-6.6c2.8-12.7,8.1-24.2,16.7-33.8
		c35.3-39.5,93.1-37.2,124.9,4.9c2.6,3.4,4.2,4,7.8,1.2c15.8-12.5,34.1-20.3,53.3-25.3c27-7,54.5-9,82.2-4
		c25.4,4.6,48.7,13.5,65.6,34.3c2.1,2.6,3.6,2,5.8,0.2c27-23,58.6-35.4,93.7-37.6c47.5-3.1,89.9,9.9,125.5,42.4
		c3.6,3.3,5.7,3.1,8.8-0.7c13.9-17.4,31.6-29.5,52.7-36.8c18.7-6.5,38.1-6.5,57.6-6.4c14.4,0,27.6,3.7,39.7,11.2
		c3,1.9,4.9,1.7,7.8-0.1c11-6.9,23.1-10.9,36.1-10.9c50.3-0.1,100.5-0.5,150.8,0.1c29.7,0.4,54.9,19,64.6,47.8
		c1.8,5.5,2.9,11.2,4.3,16.8c0,5.1,0,10.2,0,15.3c-1.2,0.8-1,2-1.1,3.2c-3.1,20-12.6,35.9-29.7,47.2c-9.5,6.3-19.9,9.9-31,12
		c-10.3,1.9-10.3,1.9-10.3,12.6c0,6.7,0.1,13.3,0,20c-0.4,30.2,1.1,60.4-0.8,90.6c-1.3,19.6-9.9,36.1-25.3,48
		c-29.6,23-70.1,21-97.6-4.2c-3.5-3.2-5.3-3-8.7-0.6c-19.8,13.9-42.2,20.4-66.3,20.8c-33.4,0.4-66.7,0.2-100.1,0.1
		c-11.5,0-22.5-2.8-32.9-7.9c-2.4-1.2-4.1-1.3-6.5-0.3c-26.1,11.3-51.2,9.6-74.9-6.2c-2.9-1.9-4.4-1.6-7,0.2
		c-13.5,9.3-28.5,13.4-44.9,13.1c-17.6-0.3-34.7-2.9-51.4-8.5c-17.4-5.9-33.7-13.9-47.9-25.7c-3.2-2.7-5.3-1.7-8,0.5
		c-39.5,32.7-84.8,41-134.2,31.3c-26.7-5.3-51-16.5-72.7-33c-3.4-2.6-4.7-2.2-6.8,1.5c-10.3,18-26,28.6-46,33.4
		c-3.7,0.9-7.7,0.4-11.1,2.6c-3.9,0-7.9,0-11.8,0c-1-1.7-2.7-1.2-4.2-1.4c-11.6-1.8-22.7-5.4-32-12.4c-20.3-15.1-29.3-36-29.4-61
		c-0.1-25.7-0.1-51.3,0-77c0.1-14.9,3.1-29.2,11.5-41.8c1.6-2.5,1.6-4.3-0.4-6.7C10.3,255,4.3,243.7,2,230.7
		C1.7,229.2,1.6,227.5,0,226.6z M142.4,196.6c-0.6-1.8-0.9-2.5-1.1-3.3c-15.4-44.7-70.8-59-105.7-27.4c-28.5,25.9-27.6,72.9,2,97.9
		c3.1,2.6,3.4,3.9,0.4,7c-10.5,10.7-15.7,23.7-15.8,38.7c-0.1,28.1-0.2,56.1,0,84.2c0.1,21.5,8.9,38.6,27.9,49.1
		c19.9,10.9,40.4,10.4,60-0.9c16.2-9.3,24.3-24.3,26.7-42.5c0.5,0,0.8-0.1,0.9,0c2,1.9,4,3.8,6,5.6c29.3,27.5,64.1,42.8,104.1,45.1
		c42.3,2.4,79.2-10.6,109.1-41.4c1.9-2,3-1.6,4.7,0.1c25.5,23.7,55.7,36.4,90.3,39.6c21.9,2,41.4-1.5,56.8-18.6c2-2.2,3.2-2.1,5,0.1
		c17.7,20.9,51.7,25.2,75.7,9.9c2.5-1.6,4.4-1.8,6.9,0c10.6,7.5,22.8,10.1,35.6,10.2c31.2,0.1,62.4,0.2,93.6,0
		c28.1-0.2,53.3-8.6,73.9-28.3c2.9-2.8,4.1-2.3,5.9,0.9c13.7,23.3,41.4,31.6,67.3,24.6c25-6.8,40.1-27.9,40.1-55
		c0-35.9,0-71.8,0-107.7c0-13,3-16.9,15.6-20.1c2.3-0.6,4.6-1,6.9-1.4c14-2.6,26.9-7.7,36.3-18.9c15.9-19,17.5-40.5,7.9-62.3
		c-9.6-21.9-28.1-32.4-51.6-32.6c-48.5-0.5-97-0.2-145.5-0.1c-14.8,0.1-28.2,4.9-39,15.3c-2.6,2.5-4,2.6-6.7,0.1
		c-8.6-8.2-18.9-13-30.8-14.6c-10.6-1.4-21.2-1.1-31.7-0.6c-29.5,1.4-54.7,12.6-74.5,35c-6,6.8-10.6,14.4-15.2,22.7
		c-2.1-2.3-3.8-4.1-5.4-6.1c-8.8-10.5-19.1-19.2-30.5-26.5c-30.7-19.6-64.4-26.9-100.6-23.1c-36.3,3.8-67.3,18.6-92.6,45.1
		c-2.8,3-4,4.1-6.1-0.7c-6.2-14.2-16.9-23.8-31.2-29.6c-18.3-7.4-37.1-12.2-56.8-13.9c-31-2.8-60.1,2.9-87.1,18.4
		C162.6,177.2,152.4,186.1,142.4,196.6z"/>
	<path class="st1" d="M142.4,196.6c10-10.5,20.2-19.3,32-26.1c27.1-15.5,56.2-21.2,87.1-18.4c19.7,1.8,38.6,6.6,56.8,13.9
		c14.3,5.8,25,15.4,31.2,29.6c2.1,4.8,3.3,3.6,6.1,0.7c25.2-26.5,56.2-41.3,92.6-45.1c36.2-3.8,69.8,3.4,100.6,23.1
		c11.5,7.3,21.8,16.1,30.5,26.5c1.6,1.9,3.4,3.8,5.4,6.1c4.6-8.3,9.2-16,15.2-22.7c19.8-22.4,45-33.6,74.5-35
		c10.5-0.5,21.1-0.8,31.7,0.6c11.9,1.6,22.2,6.4,30.8,14.6c2.6,2.5,4.1,2.4,6.7-0.1c10.9-10.4,24.2-15.2,39-15.3
		c48.5-0.2,97-0.4,145.5,0.1c23.5,0.2,42,10.7,51.6,32.6c9.6,21.8,7.9,43.3-7.9,62.3c-9.4,11.2-22.2,16.3-36.3,18.9
		c-2.3,0.4-4.6,0.8-6.9,1.4c-12.6,3.2-15.6,7.1-15.6,20.1c0,35.9,0,71.8,0,107.7c0,27.1-15.1,48.3-40.1,55
		c-25.9,7-53.6-1.3-67.3-24.6c-1.9-3.2-3-3.7-5.9-0.9c-20.6,19.7-45.8,28.1-73.9,28.3c-31.2,0.2-62.4,0.1-93.6,0
		c-12.8,0-25-2.6-35.6-10.2c-2.5-1.8-4.4-1.5-6.9,0c-24,15.3-58,11-75.7-9.9c-1.8-2.2-3.1-2.3-5-0.1c-15.3,17.1-34.9,20.6-56.8,18.6
		c-34.6-3.2-64.9-15.8-90.3-39.6c-1.7-1.6-2.8-2.1-4.7-0.1c-29.9,30.8-66.8,43.8-109.1,41.4c-40-2.3-74.8-17.6-104.1-45.1
		c-2-1.9-4-3.8-6-5.6c-0.1-0.1-0.4,0-0.9,0c-2.5,18.1-10.5,33.1-26.7,42.5c-19.7,11.3-40.2,11.8-60,0.9
		c-19-10.4-27.8-27.6-27.9-49.1c-0.2-28.1-0.1-56.1,0-84.2c0-15,5.3-28,15.8-38.7c3-3.1,2.7-4.3-0.4-7c-29.6-25-30.5-72-2-97.9
		c34.9-31.7,90.3-17.3,105.7,27.4C141.5,194,141.8,194.7,142.4,196.6z M811.6,379.5c0.5,8-0.2,15.9,1.6,23.6
		c6,26,31.1,37.4,57.1,29.8c17-5,28.1-20.6,28.2-39.1c0.2-38.6,0.1-77.3,0-115.9c0-8.8,3.7-15.5,10.6-20.5c6.8-4.9,14.7-7,22.9-8.5
		c16.5-3,30.4-9.9,36.1-27c9.9-29.8-9.6-58.5-41.5-58.4c-47.5,0.2-95,0-142.5,0.1c-17.3,0-30.6,7.1-39.3,22.3
		c-2.3,4.1-3.4,8.7-4.9,14.6c-0.8-3.1-1.2-4.7-1.6-6.4c-4-15.9-17.8-27.9-34-29.9c-9.2-1.2-18.4-1-27.6-0.6
		c-38.6,2-66.3,20.1-81.5,56.1c-3,7.2-4.5,14.9-5.6,23.4c-0.9-1.4-1.3-2.1-1.7-2.7c-34.4-69.4-110.5-91.5-174.6-65.9
		c-50,20-77.6,59-82.4,113.2c-0.2,2.4-0.4,4.1-3.2,4.6c-16.4,3.3-25.6,14.2-32.1,28.9c-8.8,20-28.5,30.4-50.8,27.9
		c-19.6-2.2-37.1-18.1-41.2-37.6c-4.4-20.7,4.9-42.6,22.8-53.1c14.3-8.4,29.1-9.5,44.5-3.2c9,3.7,18,7.9,28.1,7.6
		c19.5-0.6,35.6-15,39.9-35.4c4.1-19.1-4.7-37.6-22.1-46.2c-4.5-2.2-9.3-4.1-14-5.9c-23-9.2-46.7-13.8-71.3-9.5
		c-49.6,8.7-84.8,36.1-104.5,82.9c-5.1,12.2-8.5,25-10.7,38.7c-1.2-1.5-2-2.4-2.7-3.3c-11.7-14.2-31.8-19.4-50.2-12.9
		c-16.6,5.9-26.9,21.1-27,40.1c-0.1,27.7-0.1,55.3,0,83c0.1,23.9,18.3,41.5,42.5,41.6c24.5,0.1,43.1-17.6,43.3-41.5
		c0.1-14.7,0-29.4,0.1-44.1c0-1.3-0.7-2.9,0.8-4.1c17.9,48.3,53.4,76.6,102.4,86.9c53.7,11.3,97.9-7.4,133.2-48.8c0.9,1,1.9,2,2.7,3
		c26.7,31.2,60.8,46.4,101.6,47.2c19.7,0.4,35.7-9.7,42.3-26.7c6.8-17.6,2.2-37.3-11.5-49.4c-8.9-7.9-19.7-9.9-31.1-10.4
		c-21.3-0.9-39.1-14.8-44.8-34.6c-6-20.9,1.7-43,19.7-54.7c16.1-10.4,33.4-11.1,50.2-2.4c17,8.8,26.1,23.4,26.3,42.7
		c0.3,31.2,0.1,62.4,0.1,93.6c0,9.1,2.4,17.4,7.8,24.8c15.9,21.8,49.3,23.1,67.9,2.8c1.5-1.7,2.4-4.7,5.4-0.8
		c8.1,10.6,19.3,15.7,32.6,15.7c34.7,0,69.5,0.5,104.2-0.3c27.4-0.6,49.7-12.7,66.6-34.3C804.4,394.1,808,386.8,811.6,379.5z
		 M80.1,164.5C52,164.3,30,186.1,29.9,213.9c-0.1,27.8,21.7,49.9,49.1,50c28.4,0.1,50.2-21.2,50.3-49.2
		C129.3,186.2,108.2,164.6,80.1,164.5z M253.7,265.3c-15.7-0.2-28.4,8.4-34,22.5c-5.5,13.6-2,28.7,8.9,38.7
		c10.8,9.9,26.5,11.7,40,5.1c10.2-5,14.6-14.2,18.8-23.9c5.1-11.9,12.2-22,25.2-26.4c1.7-0.6,3.6-1.1,3.1-3.5
		c-0.6-2.4-2.7-2-4.4-1.7c-15.5,2.4-29.9-1.5-44-7.6C262.7,266.5,258.1,265,253.7,265.3z M500.3,344.9c0-16.3,0.5-31.2-0.1-46.1
		c-0.9-20.6-16.3-34-37.1-33.4c-17.2,0.6-31.4,14.5-32,31.5c-0.7,19.3,11.9,35.5,29.9,36.6C474.7,334.3,487.8,336.2,500.3,344.9z"/>
	<path class="st2" d="M811.6,379.5c-3.7,7.3-7.3,14.6-12.3,21.1c-16.9,21.6-39.2,33.7-66.6,34.3c-34.7,0.8-69.5,0.3-104.2,0.3
		c-13.3,0-24.5-5.1-32.6-15.7c-3-3.9-3.9-0.9-5.4,0.8c-18.7,20.3-52,19-67.9-2.8c-5.4-7.3-7.8-15.7-7.8-24.8
		c0-31.2,0.2-62.4-0.1-93.6c-0.2-19.3-9.3-34-26.3-42.7c-16.8-8.7-34.2-8-50.2,2.4c-18.1,11.7-25.7,33.8-19.7,54.7
		c5.7,19.8,23.5,33.6,44.8,34.6c11.4,0.5,22.2,2.5,31.1,10.4c13.7,12.1,18.3,31.8,11.5,49.4c-6.6,17-22.6,27.1-42.3,26.7
		c-40.8-0.8-74.9-16-101.6-47.2c-0.9-1-1.8-2-2.7-3c-35.3,41.4-79.5,60.1-133.2,48.8c-49-10.3-84.4-38.6-102.4-86.9
		c-1.5,1.2-0.8,2.8-0.8,4.1c-0.1,14.7,0.1,29.4-0.1,44.1c-0.2,23.9-18.8,41.6-43.3,41.5c-24.3-0.1-42.4-17.7-42.5-41.6
		c-0.2-27.7-0.1-55.3,0-83c0-19,10.4-34.2,27-40.1c18.4-6.5,38.6-1.3,50.2,12.9c0.7,0.9,1.5,1.8,2.7,3.3
		c2.2-13.7,5.5-26.5,10.7-38.7c19.7-46.8,54.9-74.1,104.5-82.9c24.6-4.3,48.3,0.3,71.3,9.5c4.7,1.9,9.5,3.7,14,5.9
		c17.3,8.6,26.1,27.1,22.1,46.2c-4.3,20.4-20.4,34.8-39.9,35.4c-10.1,0.3-19-3.8-28.1-7.6c-15.3-6.4-30.2-5.2-44.5,3.2
		c-17.9,10.5-27.2,32.4-22.8,53.1c4.1,19.4,21.6,35.3,41.2,37.6c22.3,2.5,42.1-7.9,50.8-27.9c6.4-14.7,15.7-25.6,32.1-28.9
		c2.8-0.6,3-2.3,3.2-4.6c4.7-54.2,32.4-93.2,82.4-113.2c64.1-25.6,140.3-3.6,174.6,65.9c0.3,0.7,0.8,1.3,1.7,2.7
		c1.1-8.5,2.5-16.2,5.6-23.4c15.2-36,42.9-54.1,81.5-56.1c9.2-0.5,18.4-0.6,27.6,0.6c16.3,2,30,14,34,29.9c0.4,1.7,0.8,3.3,1.6,6.4
		c1.5-5.9,2.6-10.5,4.9-14.6c8.7-15.2,22-22.3,39.3-22.3c47.5,0,95,0.1,142.5-0.1c31.9-0.1,51.4,28.5,41.5,58.4
		c-5.7,17.1-19.6,24-36.1,27c-8.1,1.5-16.1,3.6-22.9,8.5c-6.9,5-10.6,11.6-10.6,20.5c0.1,38.6,0.1,77.3,0,115.9
		c-0.1,18.5-11.2,34.2-28.2,39.1c-26.1,7.6-51.1-3.9-57.1-29.8C811.5,395.4,812.1,387.5,811.6,379.5z M739.9,212
		c-7.1,22.2-18.3,32.7-37.5,35.3c-6.9,0.9-14.1,0.3-21.2,0.4c-3.5,0-7.6-0.5-7.6,4.8c0,5.3,3.8,4.9,7.5,4.8
		c16.7-0.1,33.4-0.7,50,0.1c35.9,1.8,62.3,18.4,78.1,51.2c0.7,1.4,0.6,3.5,2.8,4.4c0-11.7-0.2-23.2,0.1-34.6
		c0.2-10.3-4.5-17.5-13-22.7c-6.3-3.8-13.2-5.6-20.4-6.9c-12.7-2.3-24-7-31.7-18C743.4,225.7,741.6,219.8,739.9,212z M600.8,361.7
		c13.2-8.9,17.9-10.3,33.5-10.3c30.6,0,61.2,0,91.8,0c3.7,0,6.9-0.6,6.7-5.3c-0.2-4.3-3.2-4.6-6.6-4.6c-16.7,0.2-33.4,0.8-50,0.1
		c-31.1-1.2-56.1-14.2-73.3-40.8c-0.4-0.6-0.5-2-2-1.5C600.8,319.9,600.8,340.5,600.8,361.7z"/>
	<path class="st3" d="M80.1,164.5c28.1,0.1,49.2,21.7,49.1,50.3c-0.1,28-21.9,49.3-50.3,49.2c-27.4-0.1-49.1-22.3-49.1-50
		C30,186.1,52,164.3,80.1,164.5z"/>
	<path class="st0" d="M253.7,265.3c4.4-0.3,9.1,1.2,13.6,3.1c14,6.1,28.4,10,44,7.6c1.6-0.3,3.8-0.7,4.4,1.7c0.6,2.4-1.4,3-3.1,3.5
		c-13,4.4-20.1,14.5-25.2,26.4c-4.1,9.7-8.5,18.9-18.8,23.9c-13.5,6.6-29.2,4.8-40-5.1c-10.9-10-14.4-25-8.9-38.7
		C225.3,273.7,238,265.1,253.7,265.3z"/>
	<path class="st0" d="M500.3,344.9c-12.6-8.6-25.7-10.6-39.4-11.4c-18-1.1-30.6-17.2-29.9-36.6c0.7-17,14.9-31,32-31.5
		c20.7-0.7,36.2,12.8,37.1,33.4C500.9,313.6,500.3,328.5,500.3,344.9z"/>
	<path class="st1" d="M739.9,212c1.7,7.8,3.4,13.7,7,18.9c7.7,11.1,19,15.8,31.7,18c7.2,1.3,14.1,3.1,20.4,6.9
		c8.5,5.2,13.3,12.3,13,22.7c-0.3,11.5-0.1,22.9-0.1,34.6c-2.3-1-2.1-3-2.8-4.4c-15.7-32.8-42.2-49.4-78.1-51.2
		c-16.6-0.8-33.3-0.2-50-0.1c-3.7,0-7.5,0.4-7.5-4.8c0-5.3,4.1-4.8,7.6-4.8c7.1-0.1,14.2,0.5,21.2-0.4
		C721.6,244.6,732.9,234.1,739.9,212z"/>
	<path class="st1" d="M600.8,361.7c0-21.2,0-41.8,0-62.4c1.5-0.5,1.6,0.8,2,1.5c17.2,26.6,42.2,39.6,73.3,40.8
		c16.6,0.7,33.3,0.1,50-0.1c3.5,0,6.5,0.3,6.6,4.6c0.2,4.7-3,5.3-6.7,5.3c-30.6,0-61.2,0-91.8,0C618.7,351.4,614,352.8,600.8,361.7z
		"/>
</g>
</svg>
